<svg xmlns="http://www.w3.org/2000/svg" viewBox="0 0 140.85 173.61"><defs><style>.cls-1{fill:#e27ca6;}.cls-2{fill:#fff;}</style></defs><title>Asset 3</title><g id="Layer_2" data-name="Layer 2"><g id="Layer_4" data-name="Layer 4"><rect class="cls-1" x="5.24" y="75.29" width="134.67" height="98.28"/><path class="cls-1" d="M140.45,58.42,5.27,58.33V77.22l135.16.09a2,2,0,0,0,.42,0V58.46A2,2,0,0,0,140.45,58.42Z"/><polygon class="cls-2" points="30.54 58.35 7.18 58.33 30.23 77.23 53.59 77.25 30.54 58.35"/><path class="cls-2" d="M140.85,73.22,122.79,58.41l-23.35,0,23,18.9h18a2,2,0,0,0,.42,0Z"/><polygon class="cls-2" points="76.66 58.38 53.31 58.36 76.36 77.26 99.71 77.28 76.66 58.38"/><path class="cls-1" d="M.37,40.36,129.38,0,135,18,6,58.38a2,2,0,0,1-.41.08L0,40.52A2,2,0,0,1,.37,40.36Z"/><polygon class="cls-2" points="105.27 7.54 127.56 0.57 111.19 25.48 88.9 32.45 105.27 7.54"/><path class="cls-2" d="M4.4,54.61,17.23,35.08l22.29-7L23.15,53,6,58.38a2,2,0,0,1-.41.08Z"/><polygon class="cls-2" points="61.25 21.31 83.54 14.34 67.17 39.25 44.88 46.22 61.25 21.31"/><path class="cls-2" d="M28.69,105.23v5.33H118v-5.33Zm-.33,28H48v24.33h5.33V133.23h31v24.33h5.33V133.23h28V127.9H28.35Z"/></g></g></svg>