<svg xmlns="http://www.w3.org/2000/svg" viewBox="0 0 115.75 150.12"><defs><style>.cls-1{fill:#fff;}.cls-2{fill:#e74846;}</style></defs><title>Asset 2</title><g id="Layer_2" data-name="Layer 2"><g id="Layer_3" data-name="Layer 3"><path class="cls-1" d="M94.15,150.12H21.26L4.88,56.81H111.25Z"/><path class="cls-1" d="M34.6,35.63A10.13,10.13,0,0,0,23,27.52a9.75,9.75,0,0,0-8.55,11s0,.1,0,.15a10.65,10.65,0,0,0-5.8-.79,9.75,9.75,0,0,0-8.55,11A10.13,10.13,0,0,0,11.72,57a10.6,10.6,0,0,0,3.69-1.25,10.28,10.28,0,0,0,11,6,9.75,9.75,0,0,0,8.55-11A9.57,9.57,0,0,0,31,44.5,9.4,9.4,0,0,0,34.6,35.63Z"/><path class="cls-1" d="M74.94,34.2a10.13,10.13,0,0,0-11.61-8.11,9.75,9.75,0,0,0-8.55,11l0,.15a10.61,10.61,0,0,0-5.8-.79,9.75,9.75,0,0,0-8.55,11,10.13,10.13,0,0,0,11.61,8.11,10.52,10.52,0,0,0,3.68-1.25,10.28,10.28,0,0,0,11,6,9.75,9.75,0,0,0,8.55-11,9.56,9.56,0,0,0-3.91-6.24A9.39,9.39,0,0,0,74.94,34.2Z"/><path class="cls-1" d="M115.28,32.76a10.14,10.14,0,0,0-11.61-8.11,9.75,9.75,0,0,0-8.55,11l0,.15a10.63,10.63,0,0,0-5.8-.79A9.75,9.75,0,0,0,80.8,46a10.13,10.13,0,0,0,11.61,8.11,10.55,10.55,0,0,0,3.68-1.25,10.28,10.28,0,0,0,11,6,9.75,9.75,0,0,0,8.55-11,9.58,9.58,0,0,0-3.91-6.24A9.4,9.4,0,0,0,115.28,32.76Z"/><path class="cls-1" d="M94.48,8.11a8.82,8.82,0,0,0-17.62.48s0,.08,0,.13A9.11,9.11,0,0,0,72,7.48a8.56,8.56,0,0,0-8.55,8.59,8.62,8.62,0,0,0,9.06,8.11,9.18,9.18,0,0,0,3.3-.7,8.75,8.75,0,0,0,8.77,6.23,8.56,8.56,0,0,0,8.55-8.59,8.14,8.14,0,0,0-2.66-5.74A8.24,8.24,0,0,0,94.48,8.11Z"/><path class="cls-1" d="M58.42,12.12a8.38,8.38,0,0,0-6.87-9.86,8.82,8.82,0,0,0-10.4,6.51s0,.09,0,.13a8.91,8.91,0,0,0-4.46-2.28,8.81,8.81,0,0,0-10.4,6.51A8.37,8.37,0,0,0,33.14,23a9.23,9.23,0,0,0,3.38,0,8.48,8.48,0,0,0,7,8A8.81,8.81,0,0,0,54,24.47a8,8,0,0,0-1.21-6.17A8.5,8.5,0,0,0,58.42,12.12Z"/><rect class="cls-2" x="50.25" y="56.81" width="15.63" height="93.31"/><polygon class="cls-2" points="26.3 150.12 41.98 150.12 34.17 56.81 18.48 56.81 26.3 150.12"/><polygon class="cls-2" points="89.64 150.12 73.95 150.12 81.77 56.81 97.46 56.81 89.64 150.12"/><rect class="cls-2" x="0.61" y="52.98" width="114.98" height="8.13"/></g></g></svg>